<svg width="54" height="54" viewBox="0 0 54 54" fill="none" xmlns="http://www.w3.org/2000/svg">
<circle cx="27" cy="27" r="26" stroke="url(#paint0_linear_34_138)" stroke-width="2"/>
<path d="M36.6933 18.1066C34.92 17.28 33 16.68 31 16.3333C30.9825 16.3328 30.965 16.336 30.9489 16.343C30.9328 16.3499 30.9183 16.3602 30.9067 16.3733C30.6667 16.8133 30.3867 17.3866 30.2 17.8266C28.0787 17.5066 25.9213 17.5066 23.8 17.8266C23.6133 17.3733 23.3333 16.8133 23.08 16.3733C23.0667 16.3466 23.0267 16.3333 22.9867 16.3333C20.9867 16.68 19.08 17.28 17.2933 18.1066C17.28 18.1066 17.2667 18.12 17.2533 18.1333C13.6267 23.56 12.6267 28.84 13.12 34.0666C13.12 34.0933 13.1333 34.12 13.16 34.1333C15.56 35.8933 17.8667 36.96 20.1467 37.6666C20.1867 37.68 20.2267 37.6666 20.24 37.64C20.7733 36.9066 21.2533 36.1333 21.6667 35.32C21.6933 35.2666 21.6667 35.2133 21.6133 35.2C20.8533 34.9066 20.1333 34.56 19.4267 34.16C19.3733 34.1333 19.3733 34.0533 19.4133 34.0133C19.56 33.9066 19.7067 33.7866 19.8533 33.68C19.88 33.6533 19.92 33.6533 19.9467 33.6666C24.5333 35.76 29.48 35.76 34.0133 33.6666C34.04 33.6533 34.08 33.6533 34.1067 33.68C34.2533 33.8 34.4 33.9066 34.5467 34.0266C34.6 34.0666 34.6 34.1466 34.5333 34.1733C33.84 34.5866 33.1067 34.92 32.3467 35.2133C32.2933 35.2266 32.28 35.2933 32.2933 35.3333C32.72 36.1466 33.2 36.92 33.72 37.6533C33.76 37.6666 33.8 37.68 33.84 37.6666C36.1333 36.96 38.44 35.8933 40.84 34.1333C40.8667 34.12 40.88 34.0933 40.88 34.0666C41.4667 28.0266 39.9067 22.7866 36.7467 18.1333C36.7333 18.12 36.72 18.1066 36.6933 18.1066ZM22.36 30.88C20.9867 30.88 19.84 29.6133 19.84 28.0533C19.84 26.4933 20.96 25.2266 22.36 25.2266C23.7733 25.2266 24.8933 26.5066 24.88 28.0533C24.88 29.6133 23.76 30.88 22.36 30.88ZM31.6533 30.88C30.28 30.88 29.1333 29.6133 29.1333 28.0533C29.1333 26.4933 30.2533 25.2266 31.6533 25.2266C33.0667 25.2266 34.1867 26.5066 34.1733 28.0533C34.1733 29.6133 33.0667 30.88 31.6533 30.88Z" fill="white"/>
<defs>
<linearGradient id="paint0_linear_34_138" x1="4.64062" y1="9.59662e-07" x2="54" y2="54" gradientUnits="userSpaceOnUse">
<stop stop-color="#00B4E7"/>
<stop offset="1" stop-color="#00E5AF"/>
</linearGradient>
</defs>
</svg>
