<svg width="919" height="790" viewBox="0 0 919 790" fill="none" xmlns="http://www.w3.org/2000/svg">
<path opacity="0.2" d="M471.606 428.118V407.162L441.344 389.687V368.731L411.082 351.24V330.301L380.837 312.826L250.074 384.151L284.039 403.664V424.62L314.301 442.077V463.05L344.563 480.508V501.481L477.126 693.056C608.398 670.895 708.609 604.053 750.895 517.665C755.786 507.679 760.139 497.62 763.954 487.488L471.606 428.118Z" fill="#09ABAE"/>
<path opacity="0.15" d="M285.21 19.5785C196.733 70.5249 125 207.061 125 324.612C125 394.459 150.337 441.891 189.532 458.193L205.716 448.853L364.839 356.997L381.43 347.419C420.337 286.198 445.487 209.863 445.487 140.237C445.419 22.7202 373.704 -31.317 285.21 19.5785Z" fill="#09ABAE"/>
<path opacity="0.15" d="M285.211 53.5767C210.863 96.3717 150.594 211.103 150.594 309.888C150.594 408.673 210.863 454.084 285.211 411.323C359.559 368.562 419.846 253.779 419.846 154.994C419.846 56.2089 359.576 10.7987 285.211 53.5767Z" fill="#09ABAE"/>
<path opacity="0.15" d="M285.21 77.5385C221.051 114.594 169.035 213.973 169.035 299.512C169.035 385.051 221.051 424.399 285.21 387.361C349.369 350.323 401.385 250.926 401.385 165.37C401.385 79.8141 349.386 40.4665 285.21 77.5385Z" fill="#09ABAE"/>
<path d="M216.703 303.57C216.703 229.46 261.774 143.361 317.357 111.248C341.862 97.1184 364.295 95.8108 381.736 105.117L359.133 92.0408C341.471 81.8515 318.376 82.7006 293.174 97.2713C237.558 129.385 192.504 215.484 192.504 289.594C192.504 330.164 206.005 358.728 227.351 371.023C231.002 373.112 244.571 380.975 250.107 384.168C229.542 371.414 216.703 343.224 216.703 303.57Z" fill="#09ABAE"/>
<path opacity="0.3" d="M216.703 303.57C216.703 229.46 261.774 143.361 317.357 111.248C341.862 97.1184 364.295 95.8108 381.736 105.117L359.133 92.0408C341.471 81.8515 318.376 82.7006 293.174 97.2713C237.558 129.385 192.504 215.484 192.504 289.594C192.504 330.164 206.005 358.728 227.351 371.023C231.002 373.112 244.571 380.975 250.107 384.168C229.542 371.414 216.703 343.224 216.703 303.57Z" fill="white"/>
<path d="M356.909 126.787C365.689 138.505 370.393 157.151 369.34 181.402C366.809 240.839 330.654 311.553 288.607 339.217C275.836 347.623 263.965 351.104 253.742 350.17C266.513 367.152 287.91 369.581 312.806 353.193C354.871 325.529 391.026 254.866 393.556 195.361C395.288 153.959 380.31 128.876 356.909 126.787Z" fill="#09ABAE"/>
<path opacity="0.15" d="M356.909 126.787C365.689 138.505 370.393 157.151 369.34 181.402C366.809 240.839 330.654 311.553 288.607 339.217C275.836 347.623 263.965 351.104 253.742 350.17C266.513 367.152 287.91 369.581 312.806 353.193C354.871 325.529 391.026 254.866 393.556 195.361C395.288 153.959 380.31 128.876 356.909 126.787Z" fill="black"/>
<path d="M242.348 144.992L266.547 158.968L268.483 156.37L244.284 142.359C243.621 143.259 242.993 144.058 242.348 144.992Z" fill="#09ABAE"/>
<path d="M231.242 225.929L206.958 211.986C206.618 212.92 206.295 213.888 205.973 214.839L230.172 228.816C230.512 227.831 230.818 226.863 231.242 225.929Z" fill="#09ABAE"/>
<path d="M341.625 85.877L365.842 99.9042C366.826 100.074 367.811 100.244 368.779 100.448L344.563 86.4713C343.595 86.2166 342.61 86.0298 341.625 85.877Z" fill="#09ABAE"/>
<path d="M220.115 266.974C220.302 265.921 220.506 264.851 220.709 263.799L196.51 249.822C196.289 250.875 196.085 251.928 195.898 252.998L220.115 266.974Z" fill="#09ABAE"/>
<path d="M266.137 117.82L290.336 131.797C291.168 130.999 292.034 130.2 292.85 129.436L268.599 115.46C267.801 116.224 266.901 117.022 266.137 117.82Z" fill="#09ABAE"/>
<path d="M220.236 336.839C220.015 335.905 219.811 334.954 219.607 334.003L219.421 333.578L195.34 319.67C195.561 320.757 195.781 321.827 196.036 322.88L220.236 336.839Z" fill="#09ABAE"/>
<path d="M320.514 86.5049C319.495 86.7087 318.442 86.9804 317.406 87.2351L341.623 101.211C342.676 100.94 343.729 100.702 344.764 100.498L320.514 86.5049Z" fill="#09ABAE"/>
<path d="M318.867 110.433L294.667 96.5078C294.158 96.7965 293.665 97.0343 293.173 97.3229L291.695 98.223L315.895 112.199L317.355 111.299L318.867 110.433Z" fill="#09ABAE"/>
<path d="M221.832 178.022L246.032 191.999L247.458 189.349L223.259 175.373C222.749 176.222 222.291 177.105 221.832 178.022Z" fill="#09ABAE"/>
<path d="M230.508 363.5C229.965 362.566 229.455 361.632 228.929 360.664L204.746 346.705C205.256 347.673 205.799 348.607 206.342 349.541L230.508 363.5Z" fill="#09ABAE"/>
<path d="M192.505 289.866L216.705 303.859V303.571C216.705 302.535 216.705 301.465 216.705 300.412L192.488 286.436C192.488 287.488 192.488 288.558 192.488 289.594L192.505 289.866Z" fill="#09ABAE"/>
<path d="M317.356 111.248C261.774 143.361 216.703 229.461 216.703 303.571C216.703 377.681 261.774 411.764 317.356 379.668C372.939 347.571 418.043 261.472 418.043 187.345C418.043 113.218 372.956 79.1515 317.356 111.248ZM393.504 195.36C390.974 254.798 354.819 325.512 312.754 353.175C270.689 380.839 238.678 355.044 241.208 295.555C243.739 236.067 279.928 165.404 321.958 137.74C363.989 110.076 396.052 135.872 393.504 195.36Z" fill="#09ABAE"/>
<g opacity="0.15">
<path d="M296.757 160.106C297.572 159.206 298.37 158.289 299.202 157.406L292.834 129.437C291.985 130.201 291.135 130.982 290.32 131.78L296.757 160.106Z" fill="black"/>
<path d="M315.879 112.131V142.122C316.864 141.357 317.849 140.61 318.851 139.897V110.416L317.356 111.248L315.879 112.131Z" fill="black"/>
<path d="M336.344 130.201C337.431 129.777 338.517 129.386 339.587 129.046L344.682 100.482C343.646 100.686 342.593 100.924 341.54 101.179L336.344 130.201Z" fill="black"/>
<path d="M254.285 233.401L255.355 230.582L231.24 225.912C230.901 226.863 230.561 227.814 230.238 228.765L254.285 233.401Z" fill="black"/>
<path d="M265.714 206.893L267.072 204.175L247.441 189.333L246.031 191.999L265.714 206.893Z" fill="black"/>
<path d="M413.917 151.751L392.57 171.773C392.74 172.962 392.893 174.167 393.029 175.424L414.783 155.046C414.46 153.959 414.206 152.838 413.917 151.751Z" fill="black"/>
<path d="M241.94 285.859L216.738 300.396C216.738 301.466 216.738 302.519 216.738 303.572V303.86L241.634 289.494C241.685 288.288 241.821 287.065 241.94 285.859Z" fill="black"/>
<path d="M246.016 261.235C246.271 260.166 246.543 259.096 246.798 258.009L220.696 263.766C220.492 264.819 220.288 265.888 220.102 266.941L246.016 261.235Z" fill="black"/>
<path d="M356.398 126.77C357.434 126.855 358.436 126.974 359.421 127.144L368.795 100.363C367.81 100.159 366.825 99.9726 365.824 99.8027L356.398 126.77Z" fill="black"/>
<path d="M386.016 149.051C386.491 150.053 386.95 151.106 387.391 152.176L404.883 128.622C404.356 127.671 403.796 126.754 403.185 125.854L386.016 149.051Z" fill="black"/>
<path d="M373.652 133.274C374.451 133.885 375.232 134.531 375.996 135.227L389.174 109.992C388.376 109.363 387.578 108.769 386.746 108.191L373.652 133.274Z" fill="black"/>
<path d="M279.93 182.166L281.764 179.398L268.467 156.354L266.531 158.969L279.93 182.166Z" fill="black"/>
<path d="M338.483 330.233C337.685 331.167 336.785 332.067 336.055 332.951L342.423 361.005C343.272 360.241 344.121 359.409 344.936 358.611L338.483 330.233Z" fill="black"/>
<path d="M370.054 281.987C369.612 282.904 369.154 283.804 368.695 284.704L388.378 299.581L389.753 296.881L370.054 281.987Z" fill="black"/>
<path d="M355.686 307.427L353.852 310.212L367.183 333.308C367.828 332.441 368.49 331.609 369.119 330.709L355.686 307.427Z" fill="black"/>
<path d="M381.398 254.833C381.058 255.784 380.736 256.735 380.379 257.669L404.494 262.322C404.833 261.371 405.156 260.42 405.479 259.469L381.398 254.833Z" fill="black"/>
<path d="M389.36 226.659C389.14 227.729 388.919 228.799 388.664 229.852L414.647 224.163C414.834 223.093 415.003 222.04 415.19 220.987L389.36 226.659Z" fill="black"/>
<path d="M418.046 184.221L393.32 198.401C393.32 199.59 393.167 200.778 393.082 201.984L418.046 187.634V187.345C418.046 186.293 418.046 185.257 418.046 184.221Z" fill="black"/>
<path d="M318.851 378.769V348.812C317.866 349.577 316.864 350.324 315.879 351.037V380.518L317.356 379.669C317.849 379.38 318.358 379.058 318.851 378.769Z" fill="black"/>
<path d="M247.899 340.1C247.44 339.064 246.999 337.994 246.574 336.873L228.93 360.648C229.439 361.616 229.983 362.567 230.526 363.484L247.899 340.1Z" fill="black"/>
<path d="M260.007 356.827C259.226 356.182 258.462 355.503 257.715 354.772L244.469 380.11C245.25 380.755 246.048 381.367 246.863 381.961L260.007 356.827Z" fill="black"/>
<path d="M297.81 360.971C296.723 361.378 295.653 361.735 294.583 362.075L289.488 390.554C290.541 390.35 291.594 390.129 292.647 389.874L297.81 360.971Z" fill="black"/>
<path d="M277.347 364.079C276.328 363.977 275.343 363.824 274.358 363.638L265.086 390.3C266.071 390.537 267.056 390.724 268.041 390.894L277.347 364.079Z" fill="black"/>
<path d="M241.89 316.614C241.755 315.392 241.636 314.135 241.534 312.861L219.457 333.461C219.695 334.598 219.933 335.719 220.187 336.857L241.89 316.614Z" fill="black"/>
</g>
<path d="M344.529 501.497L229.492 435.08V372.195L253.709 386.172L284.005 403.68V424.636L314.267 442.094V463.067L344.529 480.524V501.497Z" fill="#053F40"/>
<path d="M253.742 386.206L380.837 312.826L411.082 330.301L284.004 403.681L253.742 386.206Z" fill="#053F40"/>
<path d="M284.004 403.681V424.637L411.081 351.257V330.301L284.004 403.681Z" fill="#053F40" fill-opacity="0.53"/>
<path d="M284.004 424.637L411.081 351.257L441.344 368.731L314.266 442.094L284.004 424.637Z" fill="#053F40"/>
<path d="M314.266 442.094V463.067L441.343 389.687V368.731L314.266 442.094Z" fill="#053F40" fill-opacity="0.53"/>
<path d="M314.266 463.067L441.343 389.688L471.605 407.162L344.528 480.525L314.266 463.067Z" fill="#053F40"/>
<path d="M344.527 480.525V501.498L471.605 428.118V407.162L344.527 480.525Z" fill="#053F40" fill-opacity="0.53"/>
<path d="M380.92 188.212C378.39 247.649 342.218 318.363 300.17 346.044C284.547 356.318 270.316 359.222 258.7 355.741C246.812 344.889 240.019 324.103 241.208 295.59C243.756 236.152 279.928 165.439 321.958 137.775C337.599 127.484 351.864 124.597 363.463 128.095C375.418 138.963 382.143 159.682 380.92 188.212Z" fill="#09ABAE"/>
<path opacity="0.9" d="M380.92 188.212C378.39 247.649 342.218 318.363 300.17 346.044C284.547 356.318 270.316 359.222 258.7 355.741C246.812 344.889 240.019 324.103 241.208 295.59C243.756 236.152 279.928 165.439 321.958 137.775C337.599 127.484 351.864 124.597 363.463 128.095C375.418 138.963 382.143 159.682 380.92 188.212Z" fill="white"/>
<path opacity="0.1" d="M299.985 315.577C286.858 317.096 274.711 323.272 265.749 332.983C260.908 338.18 256.96 344.142 254.066 350.628C255.463 352.455 257.014 354.159 258.702 355.722C261.202 356.453 263.777 356.898 266.378 357.047C267.057 355.349 267.566 353.566 268.161 351.85C271.098 343.864 276.331 336.924 283.203 331.905C290.074 326.886 298.277 324.011 306.778 323.643C312.603 323.49 318.377 324.543 324.168 325.002C326.46 322.471 328.702 319.907 330.961 317.122C320.703 316.596 310.124 314.558 299.985 315.577ZM297.472 228.611C309.359 230.156 322.334 230.819 332.727 224.739C344.495 217.844 350.083 204.174 355.755 191.794C361.036 180.297 368.253 168.155 379.784 163.705C377.39 147.623 371.65 135.515 363.448 128.043C357.853 126.433 351.955 126.182 346.245 127.313C340.491 133.9 336.3 141.702 333.984 150.137C331.266 159.647 330.315 169.751 325.951 178.599C321.506 187.495 313.962 194.458 304.74 198.179C297.472 201.066 289.575 201.762 281.848 202.951C276.458 203.747 271.13 204.916 265.902 206.449C261.868 214.461 258.274 222.687 255.135 231.09C257.22 230.024 259.39 229.132 261.623 228.424C273.153 224.875 285.584 227.083 297.472 228.611ZM309.631 169.174C313.435 162.601 314.726 154.943 316.815 147.623C317.562 144.889 318.513 142.223 319.396 139.557C316.679 141.47 313.984 143.553 311.312 145.806C307.474 155.129 303.738 164.486 296.657 171.517C293.047 175.053 288.738 177.795 284.005 179.567C283.111 179.866 282.189 180.076 281.254 180.195C279.522 182.742 277.824 185.346 276.159 188.007C279.991 187.699 283.787 187.052 287.503 186.071C296.704 183.31 304.58 177.283 309.648 169.123L309.631 169.174ZM380.956 179.482C377.635 181.203 374.627 183.47 372.057 186.19C365.74 193.118 362.344 202.102 358.472 210.661C353.071 222.854 346.024 235.268 334.289 241.585C326.477 245.78 317.307 246.833 308.527 247.071C291.8 247.529 274.818 245.372 258.464 248.956C254.939 249.726 251.494 250.823 248.173 252.233C247.041 256.298 246.05 260.345 245.201 264.375C249.009 262.36 253.038 260.793 257.207 259.705C281.373 253.592 308.154 267.008 331.3 258.007C348.282 251.367 358.625 234.504 366.963 218.303C370.359 211.697 374.01 204.717 379.869 200.336C380.322 196.294 380.639 192.286 380.82 188.312C381.041 185.171 381.075 182.267 381.024 179.431L380.956 179.482ZM320.67 278.471C307.593 278.946 294.534 277.723 281.458 277.537C274.758 277.172 268.042 277.86 261.555 279.574C255.876 281.495 250.535 284.297 245.727 287.879C244.25 288.932 242.823 290.019 241.414 291.122C241.312 292.634 241.21 294.128 241.142 295.606C240.412 312.843 242.603 327.226 247.069 338.333C249.956 335.827 252.522 332.975 254.711 329.842C263.694 317.699 272.355 304.267 285.975 297.762C300.597 290.783 317.833 293.279 333.729 290.086C340.682 288.666 347.362 286.138 353.513 282.597C356.026 277.888 358.398 273.087 360.629 268.196C359.949 268.604 359.253 268.995 358.557 269.385C347.06 275.686 333.797 277.944 320.737 278.42L320.67 278.471Z" fill="#09ABAE"/>
<path d="M459.034 162.32C459.034 168.094 457.947 173.223 450.883 174.463C458.117 174.768 458.627 179.557 459.034 186.248C459.272 179.608 459.9 174.768 466.455 174.463C459.697 173.342 459.034 168.094 459.034 162.32Z" fill="#09ABAE"/>
<path d="M294.206 469.715C294.206 475.489 293.119 480.617 286.055 481.857C293.289 482.163 293.799 486.952 294.206 493.643C294.444 486.986 295.072 482.163 301.627 481.857C294.834 480.719 294.206 475.489 294.206 469.715Z" fill="#09ABAE"/>
<path d="M241.101 291.81C241.101 294.34 240.626 296.565 237.535 297.108C240.694 297.244 240.932 299.367 241.101 302.203C241.203 299.299 241.475 297.108 244.345 297.108C241.373 296.616 241.101 294.34 241.101 291.81Z" fill="#09ABAE"/>
<path d="M227.21 301.744C227.21 307.501 226.106 312.63 219.059 313.869C226.293 314.175 226.802 318.964 227.21 325.672C227.431 319.015 228.059 314.192 234.631 313.869C227.838 312.833 227.21 307.501 227.21 301.744Z" fill="#E0E0E0"/>
<path d="M220.588 272.807C220.588 275.779 220.027 278.394 216.41 279.039C220.112 279.192 220.384 281.671 220.588 285.085C220.707 281.688 221.029 279.192 224.409 279.039C220.91 278.462 220.588 275.779 220.588 272.807Z" fill="#E0E0E0"/>
<path d="M439.42 144.965C439.42 148.361 439.335 151.588 434.461 152.352C439.556 152.352 439.216 155.528 439.471 159.603C439.607 155.528 439.963 152.607 443.988 152.42C439.827 151.724 439.946 149.805 439.42 144.965Z" fill="#E0E0E0"/>
<path d="M481.771 302.135C481.415 308.503 480.905 311.254 475.148 312.018C481.007 312.341 481.5 316.23 481.839 321.647C482.026 316.23 482.502 312.29 487.851 312.018C482.349 311.135 482.213 308.588 481.771 302.135Z" fill="#E0E0E0"/>
<path d="M270.804 469.766C270.6 473.485 270.312 475.081 266.949 475.54C270.346 475.726 270.651 477.968 270.855 481.127C270.957 477.968 271.229 475.675 274.353 475.54C271.195 474.996 271.059 473.536 270.804 469.766Z" fill="#E0E0E0"/>
<path d="M469.748 156.411C469.748 158.466 469.748 160.436 466.742 160.894C469.867 160.894 469.629 162.813 469.782 165.276C469.867 162.813 470.071 161.047 472.499 160.928C469.986 160.504 470.054 159.349 469.748 156.411Z" fill="#E0E0E0"/>
<path d="M476.15 320.646C476.15 322.683 476.15 324.653 473.145 325.112C476.252 325.112 476.015 327.048 476.167 329.51C476.252 327.048 476.473 325.265 478.901 325.163C476.388 324.721 476.456 323.566 476.15 320.646Z" fill="#E0E0E0"/>
<path d="M286.479 461.665C286.479 463.703 286.478 465.673 283.473 466.131C286.597 466.131 286.36 468.05 286.512 470.513C286.597 468.05 286.818 466.284 289.247 466.165C286.767 465.758 286.835 464.586 286.479 461.665Z" fill="#E0E0E0"/>
<path d="M713.615 416.957L767.091 386.084L847.824 432.683L886.561 410.317L805.845 363.718L832.065 348.57L789.61 324.031L763.389 339.179L716.586 312.194L677.833 334.577L724.585 361.629L624.883 419.097L656.079 437.098L907.72 504.653L912.611 501.834C915.012 492.188 916.998 482.344 918.572 472.302L713.615 416.957Z" fill="#053F40"/>
<path d="M718.642 180.074L716.638 181.228V115.983L692.421 102.007L662.465 119.294L687.174 26.4021L662.974 12.4258L621.317 36.4725L554 288.182V324.269L578.2 338.245L653.753 294.601V320.601L677.97 334.577L716.587 312.195V258.259L742.791 243.128V194.05L718.642 180.074ZM653.753 217.587L633.256 229.475L653.753 152.342V217.587Z" fill="#09ABAE"/>
<path opacity="0.3" d="M718.642 180.074L716.638 181.228V115.983L692.421 102.007L662.465 119.294L687.174 26.4021L662.974 12.4258L621.317 36.4725L554 288.182V324.269L578.2 338.245L653.753 294.601V320.601L677.97 334.577L716.587 312.195V258.259L742.791 243.128V194.05L718.642 180.074ZM653.753 217.587L633.256 229.475L653.753 152.342V217.587Z" fill="black"/>
<path d="M716.621 209.181V115.983L677.884 138.349V231.564L624.391 262.437L687.174 26.4023L645.516 50.4491L578.199 302.158V338.178L677.884 280.642V334.577L716.621 312.195V258.26L742.841 243.129V194.05L716.621 209.181Z" fill="#09ABAE"/>
<path opacity="0.3" d="M716.621 209.181V115.983L677.884 138.349V231.564L624.391 262.437L687.174 26.4023L645.516 50.4491L578.199 302.158V338.178L677.884 280.642V334.577L716.621 312.195V258.26L742.841 243.129V194.05L716.621 209.181Z" fill="white"/>
<path d="M687.173 26.4021L662.974 12.4258L621.316 36.4725L645.516 50.4488L687.173 26.4021Z" fill="#09ABAE"/>
<path opacity="0.5" d="M687.173 26.4021L662.974 12.4258L621.316 36.4725L645.516 50.4488L687.173 26.4021Z" fill="white"/>
<path d="M692.421 102.007L716.621 115.983L677.884 138.349L660.121 128.091L662.465 119.295L692.421 102.007Z" fill="#09ABAE"/>
<path opacity="0.5" d="M692.421 102.007L716.621 115.983L677.884 138.349L660.121 128.091L662.465 119.295L692.421 102.007Z" fill="white"/>
<path d="M677.884 231.563L653.668 217.587L633.17 229.423L624.391 262.437L677.884 231.563Z" fill="#09ABAE"/>
<path opacity="0.5" d="M677.884 231.563L653.668 217.587L633.17 229.423L624.391 262.437L677.884 231.563Z" fill="black"/>
<path d="M742.842 194.05L718.642 180.073L716.621 181.228V209.181L742.842 194.05Z" fill="#09ABAE"/>
<path opacity="0.5" d="M716.621 209.181L742.842 194.05L718.642 180.073L716.621 181.228V209.181Z" fill="white"/>
<path d="M578.2 302.158L554 288.182L621.317 36.4727L645.517 50.449L578.2 302.158Z" fill="#09ABAE"/>
<path opacity="0.15" d="M578.2 302.158L554 288.182L621.317 36.4727L645.517 50.449L578.2 302.158Z" fill="black"/>
<path d="M278.066 633.587L235.56 609.047L209.356 624.179L162.639 597.211L123.885 619.576L170.603 646.544L70.918 704.097L102.114 722.115L353.773 789.67L395.43 765.623L159.616 701.974L213.109 671.083L293.826 717.699L332.579 695.317L251.846 648.718L278.066 633.587Z" fill="#053F40"/>
<path d="M164.642 465.074L162.638 466.245V400.932L138.421 386.956L108.465 404.329L133.174 311.436L108.974 297.46L67.3172 321.473L0 573.199V609.218L24.2675 623.195L99.7531 579.618V605.601L123.953 619.577L162.706 597.212V543.26L188.909 528.128V479.05L164.642 465.074ZM99.6852 502.587L79.1878 514.475L99.6852 437.41V502.587Z" fill="#09ABAE"/>
<path opacity="0.3" d="M164.642 465.074L162.638 466.245V400.932L138.421 386.956L108.465 404.329L133.174 311.436L108.974 297.46L67.3172 321.473L0 573.199V609.218L24.2675 623.195L99.7531 579.618V605.601L123.953 619.577L162.706 597.212V543.26L188.909 528.128V479.05L164.642 465.074ZM99.6852 502.587L79.1878 514.475L99.6852 437.41V502.587Z" fill="black"/>
<path d="M162.638 494.198V400.983L123.884 423.349V516.564L70.3907 547.437L133.191 311.402L91.5334 335.449L24.1992 587.158V623.195L123.884 565.642V619.577L162.638 597.212V543.26L188.841 528.129V479.05L162.638 494.198Z" fill="#09ABAE"/>
<path opacity="0.3" d="M162.638 494.198V400.983L123.884 423.349V516.564L70.3907 547.437L133.191 311.402L91.5334 335.449L24.1992 587.158V623.195L123.884 565.642V619.577L162.638 597.212V543.26L188.841 528.129V479.05L162.638 494.198Z" fill="white"/>
<path d="M133.19 311.402L108.974 297.426L67.3164 321.473L91.533 335.449L133.19 311.402Z" fill="#09ABAE"/>
<path opacity="0.5" d="M133.19 311.402L108.974 297.426L67.3164 321.473L91.533 335.449L133.19 311.402Z" fill="white"/>
<path d="M138.421 387.007L162.638 400.983L123.884 423.349L106.121 413.108L108.465 404.312L138.421 387.007Z" fill="#09ABAE"/>
<path opacity="0.5" d="M138.421 387.007L162.638 400.983L123.884 423.349L106.121 413.108L108.465 404.312L138.421 387.007Z" fill="white"/>
<path d="M123.884 516.563L99.6848 502.587L79.1874 514.423L70.3906 547.437L123.884 516.563Z" fill="#09ABAE"/>
<path opacity="0.5" d="M123.884 516.563L99.6848 502.587L79.1874 514.423L70.3906 547.437L123.884 516.563Z" fill="white"/>
<path d="M188.84 479.05L164.641 465.073L162.637 466.245V494.198L188.84 479.05Z" fill="#09ABAE"/>
<path opacity="0.5" d="M162.637 494.198L188.84 479.05L164.641 465.073L162.637 466.245V494.198Z" fill="white"/>
<path d="M24.1996 587.158L0 573.199L67.3172 321.473L91.5338 335.449L24.1996 587.158Z" fill="#09ABAE"/>
<path opacity="0.15" d="M24.1996 587.158L0 573.199L67.3172 321.473L91.5338 335.449L24.1996 587.158Z" fill="black"/>
<path d="M573.067 595.79C566.294 592.7 559.128 590.557 551.771 589.422C547.27 588.676 542.673 588.716 538.186 589.541C534.99 590.194 531.895 591.268 528.981 592.733C518.996 597.692 517.552 603.211 517.23 607.882C516.907 612.552 519.488 618.801 527.742 624.575L669.39 723.802C695.172 710.066 719.134 693.156 740.715 673.467C679.171 644.869 578.739 598.219 573.067 595.79Z" fill="#053F40"/>
<path d="M618.391 386.961C627.085 388.659 630.482 389.254 634.643 396.454C638.803 403.654 645.868 430.418 647.804 435.971C649.74 441.525 650.317 443.545 649.502 449.727C648.67 456.18 644.866 467.643 643.269 473.926C642.522 476.83 642.03 479.666 641.486 482.638C640.735 485.68 639.77 488.665 638.599 491.571C638.098 492.988 637.224 494.243 636.069 495.205C635.356 495.834 634.371 495.901 633.692 496.479C633.012 497.056 632.825 498.075 631.874 498.551C630.923 499.026 629.599 498.754 628.665 499.298C627.743 499.973 626.785 500.597 625.795 501.166C624.883 501.431 624.049 501.915 623.366 502.575C622.755 503.238 622.178 504.732 621.074 504.613C619.97 504.494 619.647 503.306 619.596 502.287C619.635 500.287 620.314 498.353 621.532 496.768C622.616 495.002 623.801 493.301 625.082 491.673C626.329 490.163 627.222 488.393 627.697 486.493C628.087 485.22 627.969 483.606 626.321 484.337C624.402 485.22 622.364 487.054 620.055 486.646C618.459 486.374 618.357 485.118 619.291 484.065C620.826 482.33 622.234 480.485 623.502 478.546C624.793 476.559 625.863 474.47 627.204 472.534C627.929 471.528 628.717 470.569 629.565 469.664C631.908 467.117 631.807 463.635 632.078 460.392C632.452 455.892 632.775 444.344 632.775 444.344L622.246 418.412L618.391 386.961Z" fill="#FFBDA7"/>
<path d="M632.094 460.392C632.196 455.043 632.417 449.693 632.621 444.344C629.224 436.091 625.59 427.005 622.262 418.412C625.93 427.005 629.496 435.638 632.96 444.31C632.689 449.676 632.451 455.043 632.094 460.392Z" fill="white"/>
<path d="M559.685 588.352C562.674 587.299 564.899 587.197 564.865 588.675C564.46 590.495 563.815 592.254 562.946 593.905L560.568 597.183L559.43 600.409C559.43 600.409 558.038 602.107 557.953 602.277C557.868 602.447 557.41 596.249 557.41 596.249C557.41 596.249 555.728 589.116 559.685 588.352Z" fill="#053F40"/>
<path d="M591.782 462.277C591.782 462.277 584.989 470.343 580.964 485.457C577.251 499.504 574.415 513.768 572.473 528.167C571.505 534.604 569.943 542.721 567.633 555.339C565.85 565.052 560.246 594.839 560.246 594.839C560.246 594.839 563.473 600.206 567.379 601.836C572.983 604.179 578.383 603.11 579.096 598.1C579.096 598.1 582.798 592.19 588.419 576.94C591.122 569.939 593.279 562.74 594.873 555.407C595.429 550.804 595.594 546.163 595.365 541.532L617.918 502.32C620.41 498.025 623.397 494.035 626.816 490.433C628.929 488.271 630.586 485.707 631.69 482.893C635.426 472.704 629.992 458.999 629.992 458.999L591.782 462.277Z" fill="#053F40"/>
<path d="M572.555 528.15C568.921 550.482 564.76 572.729 560.328 594.907C564.234 572.627 568.412 550.397 572.555 528.15Z" fill="white"/>
<path d="M563.76 612.076L562.555 611.838C562.64 611.379 571.674 564.882 577.991 545.353C584.309 525.823 600.866 487.036 601.036 486.646L602.174 487.138C602.004 487.512 585.481 526.282 579.18 545.743C572.88 565.205 563.862 611.617 563.76 612.076Z" fill="black"/>
<path d="M621.464 475.336H584.426C583.071 478.625 581.936 482 581.03 485.44C577.605 498.373 574.968 511.502 573.133 524.754C574.033 530.817 575.052 537.049 575.986 541.329C578.482 552.639 580.045 560.62 582.014 565.29C583.916 569.238 586.161 573.011 588.722 576.566C591.36 569.708 593.466 562.656 595.023 555.475C595.579 550.872 595.744 546.231 595.515 541.6L617.592 503.306L619.171 497.277C624.657 488.157 624.028 481.314 621.464 475.336Z" fill="black"/>
<path d="M529.321 603.415C528.658 603.11 527.843 605.708 527.775 606.642C527.707 607.576 529.474 611.38 534.11 614.182C538.746 616.984 546.71 618.547 549.699 619.481C552.688 620.415 555.083 622.877 559.022 624.796C562.521 626.494 567.802 627.394 570.112 626.358C570.558 626.093 570.94 625.733 571.233 625.305C571.527 624.877 571.723 624.391 571.81 623.879C572.438 621.96 572.387 621.518 572.15 621.451L529.321 603.415Z" fill="#053F40" fill-opacity="0.53"/>
<path d="M573.798 617.205C573.493 619.166 572.843 621.057 571.879 622.792C571.203 623.3 570.434 623.669 569.614 623.876C568.795 624.083 567.942 624.124 567.107 623.998C563.511 623.74 560.047 622.533 557.07 620.499C554.796 619.02 552.342 617.839 549.768 616.984C546.225 616.13 542.747 615.029 539.358 613.689C536.83 612.621 534.477 611.179 532.378 609.41C530.68 607.814 529.101 606.013 529.27 603.772C529.652 602.361 530.46 601.102 531.585 600.168C532.71 599.235 534.096 598.673 535.554 598.558C538.343 598.417 541.133 598.838 543.756 599.798C546.304 600.661 548.942 601.23 551.619 601.496C553.453 601.649 555.61 603.194 557.036 601.581C558.734 599.713 559.397 595.298 560.535 593.09C560.721 592.733 560.976 592.343 561.367 592.258C561.757 592.173 562.403 592.649 562.759 593.124C564.422 595.199 566.552 596.852 568.975 597.947C575.53 601.191 578.57 599.475 578.57 599.475L579.181 598.117C579.181 598.117 580.489 598.847 578.824 601.904C577.42 604.417 576.239 607.048 575.292 609.767C574.466 612.169 573.963 614.67 573.798 617.205Z" fill="#053F40"/>
<path d="M529.32 603.771C531.375 596.163 540.002 598.201 545.572 600.12C547.546 600.815 549.59 601.288 551.669 601.53C549.569 601.435 547.49 601.064 545.487 600.426C539.985 598.728 531.715 596.554 529.32 603.822V603.771Z" fill="white"/>
<path d="M544.976 600.138C542.174 600.392 541.41 604.927 541.41 604.927C543.921 606.275 546.653 607.161 549.477 607.542C551.44 607.882 553.46 607.477 555.141 606.406C556.821 605.334 558.041 603.675 558.562 601.751C559.751 597.964 558.664 592.666 558.443 590.95C558.314 590.361 558.42 589.745 558.736 589.232C559.053 588.718 559.557 588.348 560.141 588.199C559.661 588.244 559.194 588.387 558.772 588.62C558.349 588.853 557.978 589.171 557.683 589.553C557.389 589.936 557.176 590.375 557.058 590.843C556.941 591.311 556.921 591.799 557 592.275C557.085 594.313 557 598.338 556.134 599.679C555.268 601.021 550.937 601.615 544.976 600.138Z" fill="#053F40"/>
<path d="M615.183 462.276C619.262 467.097 621.648 473.122 621.975 479.428C622.255 485.554 620.334 491.578 616.558 496.411C615.149 517.061 611.073 556.816 611.073 556.816C616.524 562.42 617.866 566.054 621.092 576.108C623.011 582.221 630.212 601.87 631.995 607.338C622.451 608.51 617.254 618.003 617.254 618.003C617.254 618.003 600.442 593.175 592.359 578.57C586.364 567.77 583.596 563.83 581.813 557.444C579.605 549.48 579.011 545.37 577.041 531.971C575.071 518.572 573.186 501.522 572.218 488.31C571.25 475.098 570.52 461.139 570.52 461.139L615.183 462.276Z" fill="#053F40"/>
<path d="M617.324 617.952C607.525 603.517 597.913 588.912 589.49 573.628C586.719 569.171 584.339 564.484 582.374 559.618C580.803 554.618 579.599 549.51 578.774 544.334C574.44 516.743 571.696 488.926 570.555 461.02L571.981 481.908C573.272 502.813 575.87 523.616 579.199 544.266C580.404 551.059 581.661 558.072 584.752 564.322C594.664 582.766 605.537 600.679 617.324 617.986V617.952Z" fill="white"/>
<path d="M593.564 563.252C588.622 550.651 582.695 482.061 583.001 458.354H581.761C581.66 466.284 582.254 479.208 583.273 493.388C579.248 491.35 576.65 487.614 576.65 468.831H575.41C575.41 487.716 577.873 492.284 583.375 494.814C585.447 522.903 589.149 555.389 592.409 563.728C597.249 576.057 622.502 617.714 622.739 618.071L623.809 617.425C623.555 617.052 598.37 575.496 593.564 563.252Z" fill="black"/>
<path d="M615.927 615.846C614.416 617.985 612.7 619.497 616.997 622.35C620.393 624.541 620.512 626.307 621.548 628.65C622.223 630.935 622.498 633.319 622.363 635.698C622.363 635.698 628.069 627.088 626.405 621.535C624.741 615.982 615.927 615.846 615.927 615.846Z" fill="#053F40"/>
<path d="M634.218 610.921C635.825 612.617 637.716 614.019 639.805 615.065C641.249 615.965 642.743 616.763 643.202 618.461C643.202 618.648 642.353 619.667 642.37 619.854C642.443 620.663 642.415 621.479 642.285 622.282C641.962 625.084 640.434 627.156 640.094 629.941C639.983 631.053 639.784 632.155 639.5 633.236C639.255 634.551 639.147 635.888 639.177 637.226C639.092 638.619 638.99 640.011 638.922 641.404C638.846 641.996 638.846 642.595 638.922 643.187C639.041 643.781 629.565 648.553 625.744 650.387C625.518 650.497 625.285 650.593 625.048 650.676C622.716 651.311 620.233 651.069 618.068 649.997C610.46 647.229 610.936 644.478 610.936 644.478C610.974 643.338 611.335 642.233 611.975 641.289C612.615 640.346 613.508 639.603 614.553 639.145C615.016 638.876 615.505 638.654 616.013 638.483C617.906 637.78 619.97 637.679 621.923 638.194C622.308 637.064 622.487 635.873 622.449 634.679C622.605 632.894 622.634 631.101 622.534 629.313C622.197 627.292 621.414 625.372 620.242 623.692C618.628 621.467 616.845 618.597 615.775 617.035C614.706 615.472 614.417 611.702 620.751 607.168C626.831 602.838 631.28 603.771 632.146 605.555C632.628 607.417 633.324 609.218 634.218 610.921Z" fill="#053F40"/>
<path d="M610.832 644.494C610.832 639.247 617.523 636.615 621.887 638.16C617.421 637.328 611.477 639.4 610.832 644.494Z" fill="white"/>
<path opacity="0.1" d="M617.863 640.912C618.371 639.617 619.33 638.549 620.563 637.906C621.011 637.958 621.454 638.043 621.888 638.161C621.124 638.891 618.39 639.978 617.863 640.912Z" fill="black"/>
<path d="M644.085 620.109C645.783 620.822 644.373 623.505 642.386 627.666C640.591 630.74 639.874 634.326 640.348 637.855C640.756 641.54 639.89 643.34 638.294 644.648C636.697 645.955 624.844 651.135 624.844 651.135C627.662 647.575 629.295 643.222 629.514 638.687C630.159 630.57 630.94 625.356 634.982 621.807C636.239 620.79 637.729 620.102 639.318 619.806C640.908 619.509 642.546 619.613 644.085 620.109Z" fill="black"/>
<path d="M610.833 644.478C611.02 646.074 615.554 649.301 620.903 649.233C626.253 649.165 626.711 648.027 627.544 641.761C628.376 635.494 628.953 626.782 631.67 623.08C634.387 619.378 637.954 617.136 643.167 618.495C643.761 618.784 645.375 620.397 644.78 621.891C644.78 621.891 644.78 620.703 642.641 620.074C640.807 619.548 638.616 619.599 635.559 622.248C631.976 625.322 631.178 632.573 630.77 638.789C630.363 645.004 628.427 650.965 623.281 651.525C621.06 651.826 618.8 651.638 616.659 650.976C614.517 650.313 612.547 649.19 610.884 647.687C610.562 646.644 610.544 645.531 610.833 644.478Z" fill="#053F40" fill-opacity="0.53"/>
<path d="M580.164 347.969C579.471 346.994 579.044 345.854 578.925 344.663C578.806 343.472 578.999 342.27 579.485 341.177C580.351 338.969 582.151 336.642 587.399 333.925C593.648 330.699 610.8 328.389 619.291 339.614C620.514 341.312 603.634 372.984 604.466 379.556C600.084 374.954 585.632 358.77 585.632 358.77C582.236 357.31 580.13 356.07 579.4 352.843C579.136 351.179 579.403 349.473 580.164 347.969Z" fill="#053F40"/>
<path d="M585.632 358.685C580.537 357.343 577.294 352.877 580.164 347.918C577.99 353.013 580.894 356.715 585.632 358.685Z" fill="white"/>
<path d="M580.164 347.969C578.025 345.625 578.551 341.855 580.164 339.342C582.038 336.903 584.538 335.019 587.399 333.891C586.094 334.642 584.835 335.47 583.629 336.37C580.079 338.832 577.43 344.012 580.232 347.969H580.164Z" fill="white"/>
<path d="M582.745 356.986C582.745 356.986 578.109 364.543 578.635 365.172C579.701 366.02 580.838 366.775 582.032 367.43L582.745 356.986Z" fill="#F0997A"/>
<path d="M582.746 356.986C581.591 359.415 580.198 361.707 579.06 364.119C578.908 364.509 578.585 364.968 578.806 365.24C579.097 365.576 579.441 365.863 579.825 366.089C579.366 365.834 578.602 365.63 578.5 365.019C579.435 362.114 580.872 359.395 582.746 356.986Z" fill="white"/>
<path d="M588.487 343.164C585.379 344.641 582.696 347.019 581.694 353.829C581.439 355.612 582.832 358.04 582.204 360.401C579.503 370.59 582.713 379.081 584.683 380.864C586.008 382.121 592.97 382.681 596.57 381.662C601.139 380.389 611.073 375.905 615.811 368.756C621.381 360.265 622.604 349.057 616.473 344.522C607.83 338.137 591.798 341.602 588.487 343.164Z" fill="#FFBDA7"/>
<path d="M581.727 353.828C581.727 356.138 583.086 358.396 582.305 360.757C580.861 367.329 580.759 375.141 584.716 380.864C580.369 375.328 580.369 367.278 582.033 360.689C582.814 358.447 581.524 356.155 581.727 353.896V353.828Z" fill="white"/>
<path d="M612.244 373.562L614.045 386.077C616.847 386.672 617.101 389.983 615.743 392.48L616.405 396.012L597.249 399.442L595.109 381.934L612.244 373.562Z" fill="#FFBDA7"/>
<path d="M585.09 381.119C586.788 382.019 590.269 382.681 595.126 382.002L594.838 379.522C593.297 380.101 591.713 380.555 590.1 380.881C588.451 381.208 586.762 381.288 585.09 381.119Z" fill="#F0997A"/>
<path d="M583.903 346.797C583.774 348.267 584.159 349.735 584.992 350.952C585.825 352.17 587.055 353.06 588.472 353.471C587.715 355.098 587.433 356.905 587.656 358.685C587.72 359.736 588.083 360.747 588.703 361.599C589.323 362.45 590.174 363.107 591.155 363.491C592.496 363.949 592.853 363.355 593.379 362.285C594.059 360.773 594.925 358.464 598.168 358.888C601.888 359.398 602.872 365.002 600.699 368.67C600.281 369.446 599.681 370.108 598.95 370.599C598.219 371.09 597.38 371.396 596.504 371.489C596.022 371.482 595.547 371.372 595.111 371.167C594.675 370.962 594.287 370.667 593.974 370.3C593.974 370.3 594.212 375.191 600.512 378.095C604.453 380.191 609.018 380.794 613.367 379.793C616.296 376.54 619.057 373.139 621.638 369.604C628.431 359.687 629.874 341.533 618.241 338.272C617.681 338.119 607.101 336.574 601.938 337.763C586.026 341.159 583.937 346.033 583.903 346.797Z" fill="#053F40"/>
<path d="M612.618 336.999C611.212 338.013 610.246 339.525 609.918 341.228C609.773 342.076 609.853 342.948 610.151 343.756C610.449 344.564 610.955 345.279 611.616 345.83C615.013 348.496 620.311 345.388 620.94 341.449C621.653 336.795 616.049 334.452 612.618 336.999Z" fill="#09ABAE"/>
<path d="M615.386 338.477C611.905 340.616 609.731 345.66 611.582 349.294C612.092 350.279 612.805 351.162 613.281 352.198C614.622 355.51 612.669 359.161 612.245 362.71C611.954 365.527 612.442 368.37 613.654 370.93C614.809 372.815 617.356 373.29 618.375 375.26C619.071 376.619 618.596 378.283 618.868 379.794C619.462 383.038 623.3 384.6 626.612 384.668C628.012 384.792 629.422 384.607 630.742 384.125C632.063 383.644 633.261 382.879 634.254 381.883C635.013 380.704 635.841 379.57 636.733 378.487C638.703 376.636 641.828 376.788 644.001 375.09C644.805 374.38 645.435 373.495 645.841 372.502C646.248 371.51 646.42 370.437 646.345 369.367C646.144 367.223 645.57 365.131 644.647 363.186C643.237 359.789 644.358 357.599 645.071 354.151C645.406 352.289 645.097 350.369 644.196 348.706C643.295 347.042 641.855 345.735 640.112 344.998C637.718 344.047 634.797 344.2 632.861 342.484C631.943 341.397 631.081 340.264 630.28 339.088C626.646 335.097 619.479 335.98 615.386 338.477Z" fill="#053F40"/>
<path d="M629.056 396.317C628.293 394.242 627.084 392.358 625.514 390.801C623.944 389.243 622.052 388.048 619.971 387.3C618.272 386.79 614.044 386.077 614.044 386.077C615.012 388.285 613.381 389.745 610.511 390.408C606.826 391.274 601.205 391.359 597.384 388.828L595.822 387.86C591.652 388.885 587.537 390.121 583.493 391.562C582.661 391.953 578.059 393.498 570.824 409.75C567.733 416.696 568.651 423.744 574.34 428.753C574.662 433.152 571.826 443.052 571.826 443.052C570.384 451.315 570.053 459.733 570.841 468.084C570.841 468.084 574.238 477.084 601.171 476.983C622.008 476.983 632.486 466.793 632.486 466.793C632.232 461.699 624.216 443.816 625.014 437.805C626.254 429.042 634.287 413.333 629.056 396.317Z" fill="#09ABAE"/>
<path d="M583.495 391.562C588.98 396.029 589.405 402.159 588.59 410.43C587.774 418.7 579.47 444.547 577.772 450.168C576.074 455.789 573.645 457.742 569.366 462.293C565.086 466.844 555.084 474.079 550.108 478.222C547.798 480.141 545.744 482.145 543.553 484.234C541.16 486.253 538.629 488.103 535.979 489.77C534.74 490.618 533.298 491.122 531.801 491.231C530.85 491.231 530.018 490.789 529.118 490.857C528.218 490.925 527.42 491.638 526.435 491.469C525.45 491.299 524.465 490.297 523.395 490.178C522.261 490.194 521.127 490.143 519.999 490.025C519.104 489.693 518.14 489.594 517.197 489.736C516.314 489.906 514.972 490.772 514.14 490.042C513.308 489.312 513.766 488.14 514.31 487.274C515.511 485.653 517.202 484.462 519.133 483.877C521.044 483.088 523 482.413 524.991 481.857C526.865 481.354 528.605 480.443 530.086 479.19C531.139 478.392 531.988 477 530.239 476.643C528.167 476.219 525.433 476.507 523.786 474.826C522.665 473.671 523.327 472.601 524.703 472.296C526.964 471.796 529.183 471.126 531.343 470.292C533.55 469.443 535.639 468.373 537.864 467.592C539.05 467.209 540.258 466.897 541.481 466.658C544.878 465.961 546.83 463.091 548.936 460.629C551.891 457.232 556.969 450.745 560.416 446.092L565.63 420.874C568.924 407.186 570.079 395.706 583.495 391.562Z" fill="#FFBDA7"/>
<path d="M588.554 410.429C587.229 417.901 585.408 425.276 583.102 432.506C582.933 433.1 582.746 433.678 582.576 434.204C580.487 441.286 578.466 447.671 577.719 450.15C576.191 455.245 574.034 457.351 570.451 461.087L569.313 462.276C564.847 467.014 555.031 474.061 550.055 478.222C547.763 480.141 545.691 482.128 543.517 484.217C541.118 486.241 538.582 488.096 535.926 489.77C534.685 490.611 533.244 491.109 531.748 491.213C530.797 491.298 529.965 490.772 529.065 490.84C528.165 490.908 527.367 491.621 526.382 491.451C525.397 491.281 524.412 490.279 523.342 490.177C522.208 490.188 521.074 490.131 519.946 490.008C519.05 489.684 518.087 489.584 517.144 489.719C516.872 489.719 516.549 489.906 516.21 490.025L515.785 490.16C515.594 490.232 515.394 490.277 515.191 490.296C515.001 490.334 514.805 490.33 514.617 490.283C514.429 490.236 514.254 490.148 514.104 490.025C513.17 489.209 513.713 488.14 514.257 487.273C515.457 485.652 517.148 484.461 519.08 483.877C520.99 483.082 522.947 482.401 524.939 481.839C526.812 481.336 528.552 480.426 530.033 479.173C531.086 478.375 531.935 476.999 530.186 476.626C528.114 476.201 525.38 476.49 523.75 474.826C522.612 473.654 523.274 472.584 524.65 472.278C526.911 471.781 529.131 471.111 531.29 470.274C533.498 469.425 535.603 468.355 537.811 467.591C538.994 467.196 540.202 466.884 541.428 466.657C544.825 465.961 546.778 463.074 548.883 460.628C551.838 457.232 556.916 450.728 560.38 446.075L565.577 420.856C568.871 407.101 570.077 395.621 583.442 391.494C584.822 392.612 585.975 393.984 586.839 395.536C589.114 399.544 589.165 404.418 588.554 410.429Z" fill="#FFBDA7"/>
<path d="M514.037 490.042C513.72 489.721 513.532 489.295 513.507 488.845C513.482 488.395 513.622 487.951 513.901 487.597C515.175 485.134 517.943 484.081 520.388 483.249C522.014 482.485 523.724 481.915 525.483 481.551C527.152 481.035 528.72 480.236 530.119 479.19C528.795 480.378 527.248 481.291 525.568 481.874C522.176 482.706 518.918 484.009 515.888 485.746C514.767 486.646 512.814 488.531 514.105 489.974L514.037 490.042Z" fill="white"/>
<path d="M523.783 474.894C521.677 472.482 525.753 472.177 527.281 471.667C531.323 470.631 534.889 468.407 538.863 467.286C540.9 466.974 542.85 466.239 544.586 465.129C547.354 462.938 550.326 458.54 552.619 455.772L560.261 446.041C561.959 437.55 564.659 424.321 566.68 415.694C568.837 405.505 572.148 394.619 583.492 391.562C572.318 394.738 569.057 405.556 566.986 415.762C564.948 424.525 562.502 437.346 560.583 446.33L552.873 456.044C550.513 458.829 547.609 463.142 544.739 465.401C542.98 466.515 541.007 467.249 538.948 467.558C534.974 468.661 531.357 470.835 527.315 471.803C525.77 472.296 521.728 472.516 523.783 474.945V474.894Z" fill="white"/>
<path opacity="0.3" d="M621.89 502.031C621.89 502.691 622.072 503.337 622.417 503.899C622.773 503.458 623.079 502.914 623.385 502.575C624.068 501.914 624.901 501.431 625.813 501.165C626.804 500.596 627.762 499.972 628.683 499.297C629.6 498.754 630.823 499.076 631.893 498.55C632.963 498.023 632.997 497.089 633.71 496.478C634.423 495.867 635.408 495.833 636.087 495.204C637.242 494.243 638.117 492.987 638.618 491.57C639.789 488.664 640.753 485.679 641.505 482.638C642.048 479.666 642.541 476.83 643.288 473.926C644.884 467.642 648.688 456.179 649.52 449.726C650.319 443.545 649.741 441.507 647.822 435.971C645.903 430.434 638.822 403.705 634.661 396.453C630.721 389.66 627.444 388.743 619.7 387.215L619.241 387.096L618.46 386.926L617.849 386.79L617.068 386.638L616.609 386.553L615.488 386.332L614.639 386.179H614.418H614.062L613.162 379.913H613.382C614.758 378.214 616.269 376.601 617.849 374.699C618.042 374.922 618.207 375.167 618.341 375.429C619.054 376.788 618.562 378.435 618.834 379.947C619.428 383.207 623.266 384.752 626.577 384.837C627.978 384.954 629.388 384.764 630.708 384.28C632.028 383.796 633.226 383.03 634.219 382.035C634.985 380.86 635.812 379.726 636.699 378.639C638.669 376.788 641.793 376.941 643.984 375.242C644.787 374.528 645.414 373.639 645.817 372.644C646.221 371.649 646.39 370.574 646.311 369.503C646.118 367.357 645.543 365.264 644.613 363.321C643.203 359.925 644.324 357.734 645.037 354.304C645.374 352.441 645.068 350.52 644.17 348.854C643.273 347.188 641.836 345.876 640.095 345.133C637.684 344.182 634.763 344.352 632.827 342.62C631.914 341.533 631.058 340.399 630.263 339.223C627.545 336.251 622.875 335.997 618.969 337.084C618.004 336.414 616.849 336.075 615.675 336.116C610.377 332.006 603.465 331.021 597.538 331.496C595.308 332.433 593.291 333.814 591.611 335.555C586.279 340.837 583.12 348.598 584.513 355.934C584.784 357.309 585.209 358.634 585.43 360.01C585.99 363.525 585.209 367.108 585.226 370.674C585.243 374.241 586.364 378.18 589.455 379.93C591.798 381.237 594.668 380.982 597.334 381.322C601.716 381.883 601.206 384.583 601.376 388.302C601.45 388.871 601.404 389.45 601.24 390C601.173 390.198 601.069 390.383 600.934 390.543C599.797 391.953 596.57 392.513 595.144 392.989C592.316 393.674 589.554 394.606 586.89 395.774C585.667 396.395 584.608 397.297 583.799 398.406C580.556 402.957 579.18 408.375 577.805 413.69C576.531 418.615 575.189 423.54 573.78 428.431C572.512 432.869 571.187 437.284 569.806 441.677C568.731 445.674 567.121 449.507 565.017 453.072C562.385 457.096 558.615 460.221 555.219 463.652C547.526 471.429 541.089 481.381 530.798 485.117C526.841 486.544 522.596 486.934 518.537 488.021C517.128 488.395 515.531 489.142 515.141 490.449C515.344 490.43 515.544 490.385 515.735 490.314L516.16 490.178C516.499 490.059 516.822 489.94 517.094 489.872C518.037 489.738 518.999 489.837 519.896 490.161C521.023 490.284 522.158 490.341 523.292 490.33C524.362 490.432 525.16 491.417 526.332 491.604C527.504 491.791 528.03 491.061 529.015 490.993C530 490.925 530.713 491.451 531.698 491.366C533.194 491.262 534.635 490.764 535.876 489.923C538.531 488.249 541.068 486.394 543.467 484.37C545.641 482.281 547.712 480.294 550.005 478.375C554.981 474.214 564.796 467.167 569.263 462.429L570.401 461.24C573.967 457.521 576.124 455.432 577.652 450.321C578.399 447.841 580.42 441.456 582.509 434.374L583.035 432.676C583.819 433.631 584.23 434.838 584.19 436.073C584.818 444.326 586.788 452.681 588.13 460.9C589.081 466.759 590.049 472.618 590.49 478.528C590.83 482.807 590.881 487.019 590.949 491.366L591.357 521.934C591.357 523.633 591.356 525.331 591.441 527.131C591.463 531.942 591.792 536.746 592.426 541.515C592.98 545.718 593.895 549.866 595.16 553.912C595.466 554.897 595.789 555.882 596.145 556.867C599.661 566.631 605.18 575.547 610.495 584.344C615.888 593.743 620.725 603.451 624.981 613.417C625.853 615.16 626.493 617.01 626.883 618.919C627.427 622.214 626.527 625.559 626.272 628.888C626.017 632.216 626.391 635.409 626.272 638.67C626.345 641.951 625.396 645.174 623.555 647.891C622.227 649.601 620.389 650.845 618.307 651.44C619.939 651.724 621.603 651.776 623.249 651.593C624.198 651.506 625.113 651.191 625.915 650.676C630.117 648.904 634.221 646.908 638.21 644.698C639.807 643.425 640.673 641.607 640.282 637.905C639.792 634.378 640.503 630.789 642.303 627.716C643.392 625.849 644.226 623.844 644.782 621.755C645.207 620.312 643.712 618.817 643.084 618.529C642.66 616.831 641.165 616.015 639.688 615.132C637.603 614.087 635.718 612.684 634.118 610.989C633.198 609.279 632.486 607.466 631.995 605.588C631.777 605.175 631.44 604.838 631.027 604.62C628.412 597.097 622.723 581.457 621.041 576.141C617.883 566.071 616.473 562.437 611.022 556.833C611.022 556.833 614.028 527.487 615.777 506.141L617.883 502.456C618.103 502.065 618.324 501.692 618.562 501.318C620.92 497.474 623.675 493.888 626.781 490.619C627.087 490.297 627.393 489.923 627.698 489.566C627.24 490.331 626.798 491.095 626.289 491.842C624.268 494.933 621.738 498.244 621.89 502.031ZM632.284 467.014L632.487 466.827C632.385 465.722 632.174 464.63 631.859 463.567C631.468 462.123 630.925 460.408 630.331 458.557C630.144 457.98 629.94 457.385 629.736 456.859C629.04 454.787 628.293 452.579 627.613 450.439C627.393 449.777 627.189 449.115 627.002 448.47C626.815 447.824 626.56 447.043 626.374 446.364C626.187 445.684 626.102 445.396 625.983 444.92C625.983 444.767 625.898 444.598 625.864 444.445C625.83 444.292 625.711 443.816 625.643 443.528C625.508 442.967 625.389 442.441 625.304 441.931L625.202 441.371C625.194 441.241 625.194 441.11 625.202 440.98C625.152 440.734 625.118 440.484 625.1 440.233V439.724C625.084 439.418 625.084 439.112 625.1 438.807C625.082 438.513 625.082 438.218 625.1 437.924C625.559 435.287 626.189 432.684 626.985 430.129C627.529 428.159 628.14 426.053 628.683 423.811C630.297 426.817 631.859 429.823 633.421 432.846C634.764 435.236 635.9 437.735 636.818 440.318C638.686 446.194 638.227 452.562 637.514 458.693C636.768 465.686 635.218 472.569 632.895 479.207C633.392 475.138 633.185 471.013 632.284 467.014Z" fill="black"/>
</svg>
