<svg width="54" height="54" viewBox="0 0 54 54" fill="none" xmlns="http://www.w3.org/2000/svg">
<circle cx="27" cy="27" r="26" transform="rotate(180 27 27)" stroke="url(#paint0_linear_34_156)" stroke-width="2"/>
<g clip-path="url(#clip0_34_156)">
<circle cx="26.5" cy="25.5" r="16.5" fill="white"/>
<path d="M27 3C14.3002 3 4 13.3002 4 26C4 38.6998 14.3002 49 27 49C39.6998 49 50 38.6998 50 26C50 13.3002 39.7056 3 27 3ZM15.3467 26.7724L15.4444 26.6172L21.4302 17.2562C21.4502 17.2254 21.4782 17.2006 21.5111 17.1843C21.544 17.168 21.5807 17.1609 21.6173 17.1636C21.6539 17.1663 21.6891 17.1789 21.7193 17.1999C21.7494 17.2209 21.7733 17.2496 21.7886 17.283C22.7852 19.5236 23.6516 22.3104 23.2453 24.045C23.0766 24.758 22.6032 25.724 22.0684 26.6172C21.9998 26.7478 21.925 26.8751 21.8442 26.9986C21.8248 27.0261 21.7989 27.0484 21.7688 27.0635C21.7387 27.0785 21.7053 27.0859 21.6717 27.0848H15.5249C15.4882 27.0854 15.4521 27.076 15.4203 27.0577C15.3885 27.0394 15.3623 27.0128 15.3444 26.9807C15.3265 26.9487 15.3176 26.9124 15.3187 26.8757C15.3198 26.8391 15.3308 26.8033 15.3505 26.7724H15.3467ZM42.0152 29.9924C42.0156 30.0333 42.0041 30.0735 41.9819 30.1079C41.9598 30.1423 41.928 30.1695 41.8906 30.186C41.4248 30.3834 39.8397 31.1156 39.1804 32.0298C37.4976 34.372 36.2134 37.7223 33.3384 37.7223H21.3516C20.3395 37.7208 19.3377 37.5199 18.4033 37.131C17.4689 36.7422 16.6203 36.173 15.906 35.456C15.1917 34.739 14.6257 33.8883 14.2403 32.9525C13.8549 32.0167 13.6577 31.0141 13.66 30.002V29.864C13.66 29.7528 13.752 29.6608 13.867 29.6608H20.5466C20.6807 29.6608 20.7766 29.7816 20.767 29.9138C20.7172 30.347 20.7996 30.7936 21.0066 31.198C21.4014 32.003 22.2256 32.5052 23.113 32.5052H26.4212V29.9234H23.1475C23.1091 29.923 23.0716 29.9121 23.039 29.892C23.0063 29.8718 22.9798 29.8432 22.9623 29.809C22.9447 29.7749 22.9368 29.7367 22.9394 29.6984C22.942 29.6601 22.9549 29.6233 22.9769 29.5918L23.0977 29.4193C23.4043 28.9766 23.8471 28.2962 24.2879 27.518C24.5869 26.9928 24.8783 26.4332 25.1121 25.8697C25.1581 25.77 25.1945 25.6646 25.2367 25.563C25.2999 25.3828 25.3651 25.2142 25.4111 25.0474C25.4562 24.906 25.4978 24.7635 25.5357 24.62C25.6449 24.1408 25.6909 23.6348 25.6909 23.1116C25.6909 22.9046 25.6833 22.688 25.6641 22.4848C25.6545 22.2606 25.6257 22.0344 25.5989 21.8102C25.5775 21.6095 25.5468 21.41 25.5069 21.2122C25.4553 20.911 25.3927 20.6118 25.3191 20.3152L25.2922 20.2002C25.2348 19.9932 25.1849 19.7977 25.1197 19.5926C24.9372 18.9628 24.7275 18.3412 24.4911 17.7296C24.4087 17.4995 24.3179 17.2726 24.2189 17.0492C24.0809 16.708 23.9391 16.3994 23.8107 16.11C23.7468 15.986 23.6867 15.8601 23.6305 15.7324C23.5682 15.5947 23.5023 15.4586 23.4331 15.3242C23.3871 15.2226 23.3315 15.1248 23.2951 15.0328L22.8907 14.2892C22.8351 14.1876 22.9271 14.063 23.0382 14.0956L25.5683 14.7798H25.5874L25.919 14.8757L26.287 14.9792L26.4212 15.0156V13.5148C26.4212 12.7884 27 12.2 27.7226 12.2C27.8932 12.1995 28.0622 12.2336 28.2193 12.3001C28.3764 12.3667 28.5184 12.4643 28.6368 12.5872C28.8816 12.834 29.0193 13.1673 29.0202 13.5148V15.7458L29.2904 15.8206C29.3096 15.8302 29.3326 15.8397 29.3498 15.8532C29.415 15.8992 29.5108 15.972 29.6316 16.064C29.7274 16.1368 29.829 16.2288 29.9478 16.3266C30.3263 16.6349 30.6933 16.9572 31.048 17.2926C31.4582 17.674 31.9182 18.1206 32.359 18.617C32.4836 18.7588 32.6024 18.8968 32.727 19.0502C32.8458 19.2016 32.98 19.3492 33.0912 19.4948C33.2426 19.6942 33.3978 19.9012 33.5416 20.1158C33.6048 20.2174 33.6834 20.3228 33.7428 20.4244C33.9268 20.6966 34.084 20.9764 34.2354 21.2582C34.3006 21.3866 34.3638 21.5284 34.4194 21.6664C34.59 22.044 34.7242 22.4254 34.8066 22.8126C34.8339 22.8948 34.8525 22.9795 34.8622 23.0656V23.0847C34.889 23.194 34.8986 23.3148 34.9082 23.4374C34.9621 24.0039 34.8928 24.5754 34.705 25.1126C34.6456 25.2736 34.59 25.4384 34.5172 25.5994C34.3734 25.9253 34.2086 26.2568 34.0112 26.5616C33.946 26.6766 33.8674 26.7954 33.7946 26.9104C33.7122 27.0312 33.624 27.1462 33.5512 27.2554C33.4458 27.4006 33.3352 27.5418 33.2196 27.679C33.118 27.817 33.0164 27.955 32.9014 28.0796C32.7462 28.2674 32.5947 28.4437 32.4318 28.6124C32.3398 28.7236 32.2402 28.8386 32.1328 28.9382C32.0332 29.0532 31.9258 29.1548 31.8338 29.2468C31.6728 29.4078 31.5463 29.5286 31.4352 29.634L31.1726 29.8678C31.136 29.9045 31.0864 29.9252 31.0346 29.9253H29.0202V32.5052H31.554C32.1194 32.5052 32.658 32.3058 33.095 31.934C33.2426 31.8056 33.8904 31.244 34.659 30.3968C34.684 30.368 34.7176 30.3479 34.7548 30.3393L41.7507 28.3134C41.7814 28.3045 41.8137 28.3029 41.8452 28.3086C41.8767 28.3143 41.9064 28.3273 41.932 28.3464C41.9576 28.3655 41.9785 28.3903 41.9929 28.4188C42.0073 28.4474 42.0149 28.4789 42.0152 28.5108V29.9924Z" fill="#0F0819"/>
</g>
<defs>
<linearGradient id="paint0_linear_34_156" x1="4.64062" y1="9.59662e-07" x2="54" y2="54" gradientUnits="userSpaceOnUse">
<stop stop-color="#00B4E7"/>
<stop offset="1" stop-color="#00E5AF"/>
</linearGradient>
<clipPath id="clip0_34_156">
<rect width="46" height="46" fill="white" transform="translate(4 3)"/>
</clipPath>
</defs>
</svg>
