<svg width="54" height="54" viewBox="0 0 54 54" fill="none" xmlns="http://www.w3.org/2000/svg">
<g clip-path="url(#clip0_34_142)">
<path fill-rule="evenodd" clip-rule="evenodd" d="M37.3693 16.9066C37.6988 16.7679 38.0595 16.7201 38.4137 16.7681C38.768 16.8161 39.1029 16.9582 39.3836 17.1795C39.6643 17.4009 39.8805 17.6934 40.0098 18.0267C40.1391 18.36 40.1767 18.7219 40.1187 19.0746L37.0946 37.4173C36.8013 39.1866 34.86 40.2013 33.2373 39.32C31.88 38.5826 29.864 37.4466 28.0507 36.2613C27.144 35.668 24.3667 33.768 24.708 32.416C25.0013 31.26 29.668 26.916 32.3347 24.3333C33.3813 23.3186 32.904 22.7333 31.668 23.6666C28.5973 25.984 23.6707 29.508 22.0413 30.5C20.604 31.3746 19.8547 31.524 18.9587 31.3746C17.324 31.1026 15.808 30.6813 14.5707 30.168C12.8987 29.4746 12.98 27.176 14.5693 26.5066L37.3693 16.9066Z" fill="white"/>
</g>
<circle cx="27" cy="27" r="26" stroke="url(#paint0_linear_34_142)" stroke-width="2"/>
<defs>
<linearGradient id="paint0_linear_34_142" x1="4.64062" y1="9.59662e-07" x2="54" y2="54" gradientUnits="userSpaceOnUse">
<stop stop-color="#00B4E7"/>
<stop offset="1" stop-color="#00E5AF"/>
</linearGradient>
<clipPath id="clip0_34_142">
<rect width="32" height="32" fill="white" transform="translate(11 11)"/>
</clipPath>
</defs>
</svg>
