<svg width="54" height="54" viewBox="0 0 54 54" fill="none" xmlns="http://www.w3.org/2000/svg">
<path d="M40.3334 18.7334C39.3311 19.1682 38.2713 19.4556 37.1867 19.5867C38.3309 18.9031 39.1884 17.8277 39.6 16.56C38.5248 17.2001 37.3477 17.6511 36.12 17.8934C35.2994 17.0035 34.2066 16.4111 33.0131 16.2092C31.8196 16.0072 30.5927 16.2072 29.5251 16.7776C28.4574 17.3481 27.6093 18.2567 27.1137 19.3612C26.6181 20.4656 26.5031 21.7032 26.7867 22.88C24.6126 22.7701 22.4859 22.204 20.5449 21.2185C18.6038 20.2331 16.8918 18.8503 15.52 17.16C15.0389 18.0003 14.786 18.9518 14.7867 19.92C14.785 20.8192 15.0056 21.7049 15.429 22.4981C15.8524 23.2914 16.4654 23.9676 17.2134 24.4667C16.344 24.443 15.4932 24.2098 14.7334 23.7867V23.8534C14.7399 25.1132 15.1813 26.3322 15.9831 27.304C16.7849 28.2758 17.8977 28.9409 19.1334 29.1867C18.6577 29.3315 18.1639 29.4078 17.6667 29.4134C17.3225 29.4093 16.9792 29.3781 16.64 29.32C16.9919 30.4038 17.6729 31.3509 18.5881 32.0296C19.5034 32.7083 20.6075 33.0848 21.7467 33.1067C19.823 34.6204 17.4479 35.4465 15 35.4534C14.5543 35.4548 14.109 35.4281 13.6667 35.3734C16.1659 36.987 19.0784 37.8437 22.0534 37.84C24.1063 37.8614 26.1429 37.4734 28.0442 36.6988C29.9455 35.9242 31.6734 34.7785 33.127 33.3287C34.5805 31.8788 35.7306 30.1539 36.5101 28.2546C37.2896 26.3553 37.6827 24.3197 37.6667 22.2667V21.56C38.7129 20.7798 39.6153 19.8233 40.3334 18.7334Z" fill="white"/>
<circle cx="27" cy="27" r="26" transform="rotate(180 27 27)" stroke="url(#paint0_linear_34_152)" stroke-width="2"/>
<defs>
<linearGradient id="paint0_linear_34_152" x1="4.64062" y1="9.59662e-07" x2="54" y2="54" gradientUnits="userSpaceOnUse">
<stop stop-color="#00B4E7"/>
<stop offset="1" stop-color="#00E5AF"/>
</linearGradient>
</defs>
</svg>
