<svg width="54" height="54" viewBox="0 0 54 54" fill="none" xmlns="http://www.w3.org/2000/svg">
<g clip-path="url(#clip0_34_148)">
<path d="M40.1093 20.4688C40.526 21.0625 40.6198 21.7344 40.3906 22.4844L36.0937 36.6406C35.8958 37.3073 35.4974 37.8672 34.8984 38.3203C34.2995 38.7734 33.6614 39 32.9843 39H18.5625C17.7604 39 16.987 38.7214 16.2422 38.1641C15.4974 37.6068 14.9791 36.9219 14.6875 36.1094C14.4375 35.4115 14.4271 34.75 14.6562 34.125C14.6562 34.0833 14.6718 33.9427 14.7031 33.7031C14.7343 33.4635 14.7552 33.2708 14.7656 33.125C14.776 33.0417 14.7604 32.9297 14.7187 32.7891C14.6771 32.6484 14.6614 32.5469 14.6718 32.4844C14.6927 32.3698 14.7343 32.2604 14.7968 32.1562C14.8593 32.0521 14.9453 31.9297 15.0547 31.7891C15.164 31.6484 15.25 31.526 15.3125 31.4219C15.5521 31.026 15.7864 30.5495 16.0156 29.9922C16.2448 29.4349 16.401 28.9583 16.4843 28.5625C16.5156 28.4583 16.5182 28.3021 16.4922 28.0938C16.4661 27.8854 16.4635 27.7396 16.4843 27.6562C16.5156 27.5417 16.6041 27.3958 16.75 27.2188C16.8958 27.0417 16.9843 26.9219 17.0156 26.8594C17.2343 26.4844 17.4531 26.0052 17.6718 25.4219C17.8906 24.8385 18.0208 24.3698 18.0625 24.0156C18.0729 23.9219 18.0599 23.7552 18.0234 23.5156C17.987 23.276 17.9896 23.1302 18.0312 23.0781C18.0729 22.9427 18.1875 22.7839 18.375 22.6016C18.5625 22.4193 18.6771 22.3021 18.7187 22.25C18.9166 21.9792 19.138 21.5391 19.3828 20.9297C19.6276 20.3203 19.7708 19.8177 19.8125 19.4219C19.8229 19.3385 19.8073 19.2057 19.7656 19.0234C19.7239 18.8411 19.7135 18.7031 19.7343 18.6094C19.7552 18.526 19.8021 18.4323 19.875 18.3281C19.9479 18.224 20.0416 18.1042 20.1562 17.9688C20.2708 17.8333 20.3593 17.724 20.4218 17.6406C20.5052 17.5156 20.5911 17.3568 20.6797 17.1641C20.7682 16.9714 20.8463 16.7891 20.914 16.6172C20.9817 16.4453 21.0651 16.2578 21.164 16.0547C21.263 15.8516 21.3646 15.6849 21.4687 15.5547C21.5729 15.4245 21.7109 15.3021 21.8828 15.1875C22.0547 15.0729 22.2422 15.013 22.4453 15.0078C22.6484 15.0026 22.8958 15.0312 23.1875 15.0938L23.1718 15.1406C23.5677 15.0469 23.8333 15 23.9687 15H35.8593C36.6302 15 37.2239 15.2917 37.6406 15.875C38.0573 16.4583 38.151 17.1354 37.9218 17.9062L33.6406 32.0625C33.2656 33.3021 32.8932 34.1016 32.5234 34.4609C32.1536 34.8203 31.4843 35 30.5156 35H16.9375C16.6562 35 16.4583 35.0781 16.3437 35.2344C16.2291 35.401 16.2239 35.625 16.3281 35.9062C16.5781 36.6354 17.3281 37 18.5781 37H33C33.3021 37 33.5937 36.9193 33.875 36.7578C34.1562 36.5964 34.3385 36.3802 34.4218 36.1094L39.1093 20.6875C39.1823 20.4583 39.2083 20.1615 39.1875 19.7969C39.5833 19.9531 39.8906 20.1771 40.1093 20.4688ZM23.4843 20.5C23.4427 20.6354 23.4531 20.7526 23.5156 20.8516C23.5781 20.9505 23.6823 21 23.8281 21H33.3281C33.4635 21 33.5963 20.9505 33.7265 20.8516C33.8567 20.7526 33.9427 20.6354 33.9843 20.5L34.3125 19.5C34.3541 19.3646 34.3437 19.2474 34.2812 19.1484C34.2187 19.0495 34.1146 19 33.9687 19H24.4687C24.3333 19 24.2005 19.0495 24.0703 19.1484C23.9401 19.2474 23.8541 19.3646 23.8125 19.5L23.4843 20.5ZM22.1875 24.5C22.1458 24.6354 22.1562 24.7526 22.2187 24.8516C22.2812 24.9505 22.3854 25 22.5312 25H32.0312C32.1666 25 32.2995 24.9505 32.4297 24.8516C32.5599 24.7526 32.6458 24.6354 32.6875 24.5L33.0156 23.5C33.0573 23.3646 33.0468 23.2474 32.9843 23.1484C32.9218 23.0495 32.8177 23 32.6718 23H23.1718C23.0364 23 22.9036 23.0495 22.7734 23.1484C22.6432 23.2474 22.5573 23.3646 22.5156 23.5L22.1875 24.5Z" fill="white"/>
</g>
<circle cx="27" cy="27" r="26" stroke="url(#paint0_linear_34_148)" stroke-width="2"/>
<defs>
<linearGradient id="paint0_linear_34_148" x1="4.64062" y1="9.59662e-07" x2="54" y2="54" gradientUnits="userSpaceOnUse">
<stop stop-color="#00B4E7"/>
<stop offset="1" stop-color="#00E5AF"/>
</linearGradient>
<clipPath id="clip0_34_148">
<rect width="26.5" height="24" fill="white" transform="translate(14 15)"/>
</clipPath>
</defs>
</svg>
